<svg width="48" height="48" viewBox="0 0 48 48" fill="none" xmlns="http://www.w3.org/2000/svg">
<path d="M14.43 43.15V35.54L15.17 35.18L15.91 34.82L16.65 34.46L17.39 34.1L18.13 33.74L18.87 33.38L19.61 33.02L20.35 32.66V26.04H8V20.49L9.63 19.95L11.26 19.41L14.52 18.33L17.78 17.25L19.06 16.82L20.34 16.4V8.11C20.34 7.83 20.37 7.55 20.42 7.28C20.47 7.01 20.56 6.76 20.66 6.51C20.76 6.26 20.89 6.03 21.04 5.81C21.19 5.59 21.36 5.39 21.54 5.2C21.73 5.01 21.93 4.85 22.15 4.7C22.37 4.55 22.6 4.42 22.85 4.32C23.1 4.22 23.35 4.14 23.62 4.08C23.89 4.03 24.16 4 24.45 4C24.74 4 25.01 4.03 25.28 4.08C25.55 4.14 25.8 4.22 26.05 4.32C26.3 4.42 26.53 4.55 26.75 4.7C26.97 4.85 27.17 5.02 27.36 5.2C27.55 5.39 27.71 5.59 27.86 5.81C28.01 6.03 28.13 6.26 28.24 6.51C28.34 6.76 28.42 7.01 28.48 7.28C28.53 7.55 28.56 7.83 28.56 8.11V16.39L29.85 16.81L31.14 17.24L34.4 18.32L37.66 19.4L39.29 19.94L40.92 20.48V26.03H28.57V32.65L30.05 33.38L31.53 34.11L32.27 34.47L33.01 34.83L33.75 35.19L34.49 35.55V43.16L24.47 38.48L14.45 43.16L14.43 43.15Z" stroke="#D6E2FF" stroke-width="3" stroke-linecap="round" stroke-linejoin="round"/>
</svg>
