<svg width="48" height="48" viewBox="0 0 48 48" fill="none" xmlns="http://www.w3.org/2000/svg">
<path d="M37.2094 14.0798C38.5894 13.8198 39.9394 14.1498 41.0194 14.8798C42.0894 15.6198 42.8894 16.7598 43.1394 18.1398C43.3994 19.5198 43.0694 20.8698 42.3394 21.9498C41.5994 23.0198 40.4594 23.8198 39.0794 24.0698L36.8594 24.4798" stroke="#C9C9C9" stroke-width="3" stroke-linecap="round" stroke-linejoin="round"/>
<path d="M31.95 31.39C34.36 28.98 35.85 25.65 35.85 21.98V10H7.29004V21.98C7.29004 25.66 8.78004 28.98 11.19 31.39" stroke="#C9C9C9" stroke-width="3" stroke-linecap="round" stroke-linejoin="round"/>
<path d="M5 31.8901V33.7501C5 36.6901 7.38 38.2801 10.33 38.2801H32.82C35.76 38.2801 38.15 36.6901 38.15 33.7501V31.8901H5Z" stroke="#D6E2FF" stroke-width="3" stroke-linecap="round" stroke-linejoin="round"/>
</svg>
