<svg width="24" height="24" viewBox="0 0 24 24" fill="none" xmlns="http://www.w3.org/2000/svg">
<g id="material-symbols:developer-mode-outline-rounded">
<path id="Vector" d="M6.85002 12L9.30002 14.45C9.50002 14.65 9.59602 14.8833 9.58802 15.15C9.58002 15.4167 9.48402 15.65 9.30002 15.85C9.10002 16.05 8.86236 16.1543 8.58702 16.163C8.31169 16.1717 8.07436 16.0757 7.87502 15.875L4.70002 12.7C4.50002 12.5 4.40002 12.2667 4.40002 12C4.40002 11.7333 4.50002 11.5 4.70002 11.3L7.87502 8.125C8.07502 7.925 8.31269 7.82934 8.58802 7.838C8.86336 7.84667 9.10069 7.95067 9.30002 8.15C9.48336 8.35 9.57936 8.58334 9.58802 8.85C9.59669 9.11667 9.50069 9.35 9.30002 9.55L6.85002 12ZM5.00002 17H7.00002V18H17V17H19V21C19 21.55 18.804 22.021 18.412 22.413C18.02 22.805 17.5494 23.0007 17 23H7.00002C6.45002 23 5.97902 22.804 5.58702 22.412C5.19502 22.02 4.99936 21.5493 5.00002 21V17ZM7.00002 7H5.00002V3C5.00002 2.45 5.19602 1.979 5.58802 1.587C5.98002 1.195 6.45069 0.999335 7.00002 1H17C17.55 1 18.021 1.196 18.413 1.588C18.805 1.98 19.0007 2.45067 19 3V7H17V6H7.00002V7ZM7.00002 20V21H17V20H7.00002ZM7.00002 4H17V3H7.00002V4ZM17.15 12L14.7 9.55C14.5 9.35 14.404 9.11667 14.412 8.85C14.42 8.58334 14.516 8.35 14.7 8.15C14.9 7.95 15.1377 7.846 15.413 7.838C15.6884 7.83 15.9257 7.92567 16.125 8.125L19.3 11.3C19.5 11.5 19.6 11.7333 19.6 12C19.6 12.2667 19.5 12.5 19.3 12.7L16.125 15.875C15.925 16.075 15.6874 16.171 15.412 16.163C15.1367 16.155 14.8994 16.0507 14.7 15.85C14.5167 15.65 14.421 15.4167 14.413 15.15C14.405 14.8833 14.5007 14.65 14.7 14.45L17.15 12Z" fill="black"/>
</g>
</svg>
