<svg width="88" height="88" viewBox="0 0 88 88" fill="none" xmlns="http://www.w3.org/2000/svg">
<path fill-rule="evenodd" clip-rule="evenodd" d="M30.4981 36.4846L42.9432 24.0395C43.7069 23.2759 44.9451 23.2759 45.7088 24.0395L58.1539 36.4846C58.9175 37.2483 58.9175 38.4865 58.1539 39.2502C57.3902 40.0139 56.152 40.0139 55.3883 39.2502L46.2815 30.1435L46.2815 62.5779L42.3704 62.5779L42.3704 30.1435L33.2637 39.2502C32.5 40.0139 31.2618 40.0139 30.4981 39.2502C29.7344 38.4865 29.7344 37.2483 30.4981 36.4846Z" fill="#D6E2FF"/>
<path d="M44 0.500006C68.0244 0.500005 87.5 19.9756 87.5 44C87.5 68.0244 68.0244 87.5 44 87.5C19.9756 87.5 0.499999 68.0244 0.499998 44C0.499997 19.9756 19.9756 0.500007 44 0.500006Z" stroke="#D6E2FF"/>
</svg>
