<svg width="150" height="24" viewBox="0 0 150 24" fill="none" xmlns="http://www.w3.org/2000/svg">
<path d="M2.25001 4.50001C3.49265 4.50001 4.50001 3.49265 4.50001 2.25001C4.50001 1.00736 3.49265 0 2.25001 0C1.00736 0 0 1.00736 0 2.25001C0 3.49265 1.00736 4.50001 2.25001 4.50001Z" fill="white"/>
<path d="M2.25001 23.2498C1.008 23.2498 0 22.2873 0 21.0969L0 11.1526C0 9.96538 1.008 8.99976 2.25001 8.99976C3.49201 8.99976 4.50001 9.96221 4.50001 11.1526L4.50001 21.0969C4.50001 22.2842 3.49201 23.2498 2.25001 23.2498Z" fill="white"/>
<path d="M19.5001 23.247C18.2581 23.247 17.2501 22.1342 17.2501 20.7611L17.2501 2.48588C17.2501 1.11276 18.2581 0 19.5001 0C20.7421 0 21.7501 1.11276 21.7501 2.48588L21.7501 20.7642C21.7501 22.1373 20.7421 23.2501 19.5001 23.2501V23.247Z" fill="white"/>
<path d="M9.24645 9.85921L9.23286 9.87167C8.29794 10.7284 8.23453 12.1808 9.09122 13.1157L17.5137 22.3072C18.3704 23.2421 19.8228 23.3055 20.7577 22.4488L20.7713 22.4364C21.7062 21.5797 21.7696 20.1273 20.9129 19.1924L12.4905 10.0008C11.6338 9.06593 10.1814 9.00252 9.24645 9.85921Z" fill="white"/>
<path d="M36.2455 4.5V18.4754H33.75V4.5H36.2455Z" fill="white"/>
<path d="M51.7127 4.5V18.4754H49.489L42.8671 8.94446H42.7436V18.4754H40.248V4.5H42.4965L49.0936 14.0556H49.2172V4.5H51.7127Z" fill="white"/>
<path d="M67.1561 4.5V18.4754H64.9323L58.3105 8.94446H58.1869V18.4754H55.6914V4.5H57.9399L64.537 14.0556H64.6605V4.5H67.1561Z" fill="white"/>
<path d="M71.1582 18.4754V4.5L80.2262 4.5V6.62346L73.6537 6.62346V10.4259L79.7567 10.4259V12.5247L73.6537 12.5247V16.3519H80.2756V18.4754H71.1582Z" fill="white"/>
<path d="M91.8885 18.4754L89.1459 13.3642H86.5268V18.4754H84.0312V4.5L89.2694 4.5C92.4815 4.5 94.1864 6.30247 94.1864 8.96915C94.1864 10.8704 93.3216 12.2778 91.6661 12.9198L94.7052 18.4507H91.8885V18.4754ZM86.5268 6.59877V11.2655H88.8741C90.7519 11.2655 91.592 10.4506 91.592 8.96915C91.592 7.48766 90.7519 6.59877 88.8494 6.59877L86.5021 6.59877H86.5268Z" fill="white"/>
<path d="M99.2277 4.5L102.86 15.5124H103.008L106.665 4.5H109.432L104.515 18.4754H101.427L96.5098 4.5L99.2771 4.5L99.2277 4.5Z" fill="white"/>
<path d="M114.992 4.5V18.4754H112.496V4.5H114.992Z" fill="white"/>
<path d="M118.969 18.4754V4.5L128.037 4.5V6.62346L121.464 6.62346V10.4259L127.567 10.4259V12.5247L121.464 12.5247V16.3519H128.086V18.4754H118.969Z" fill="white"/>
<path d="M134.807 18.4754L130.878 4.5H133.571L136.091 14.7963H136.215L138.908 4.5L141.379 4.5L144.072 14.7963H144.196L146.716 4.5H149.409L145.481 18.4754H142.985L140.193 8.64816H140.094L137.277 18.4754H134.782H134.807Z" fill="white"/>
</svg>
