<svg width="48" height="48" viewBox="0 0 48 48" fill="none" xmlns="http://www.w3.org/2000/svg">
<path d="M38.0793 14.15C38.0793 17.55 35.3293 20.3 31.9293 20.3C28.5293 20.3 25.7793 17.55 25.7793 14.15C25.7793 10.75 28.5393 8 31.9293 8C35.3193 8 38.0793 10.75 38.0793 14.15Z" stroke="#D6E2FF" stroke-width="3" stroke-linecap="round" stroke-linejoin="round"/>
<path d="M27.9402 39.79H42.9002V29.53C42.9002 26.59 40.5202 24.21 37.5802 24.21H26.2802C25.6402 24.21 25.0202 24.33 24.4502 24.54" stroke="#C9C9C9" stroke-width="3" stroke-linecap="round" stroke-linejoin="round"/>
<path d="M24.45 24.5302C23.88 24.3202 23.27 24.2002 22.62 24.2002H11.32C8.38 24.2002 6 26.5802 6 29.5202V39.7802H27.94V29.5202C27.94 27.2302 26.48 25.2702 24.45 24.5302Z" stroke="#C9C9C9" stroke-width="3" stroke-linecap="round" stroke-linejoin="round"/>
<path d="M23.1203 14.15C23.1203 17.55 20.3703 20.3 16.9703 20.3C13.5703 20.3 10.8203 17.55 10.8203 14.15C10.8203 10.75 13.5703 8 16.9703 8C20.3703 8 23.1203 10.75 23.1203 14.15Z" stroke="#D6E2FF" stroke-width="3" stroke-linecap="round" stroke-linejoin="round"/>
</svg>
