<svg width="48" height="48" viewBox="0 0 48 48" fill="none" xmlns="http://www.w3.org/2000/svg">
<path d="M29.2767 13.35C29.2767 9.78 27.3367 6.67 24.4567 5C21.5767 6.67 19.6367 9.78 19.6367 13.35C19.6367 16.92 21.5767 20.03 24.4567 21.7C27.3367 20.03 29.2767 16.92 29.2767 13.35Z" stroke="#D6E2FF" stroke-width="3" stroke-linecap="round" stroke-linejoin="round"/>
<path d="M19.6368 24.8101C16.7168 22.7601 13.0568 22.5701 10.0368 23.9701C9.74681 27.2901 11.1768 30.6601 14.0968 32.7101C17.0168 34.7601 20.6768 34.9601 23.6968 33.5501C23.9868 30.2301 22.5568 26.8601 19.6368 24.8101Z" stroke="#C9C9C9" stroke-width="3" stroke-linecap="round" stroke-linejoin="round"/>
<path d="M28.8663 24.8101C31.7863 22.7601 35.4463 22.5701 38.4663 23.9701C38.7563 27.2901 37.3263 30.6601 34.4063 32.7101C31.4863 34.7601 27.8263 34.9601 24.8063 33.5501C24.5163 30.2301 25.9463 26.8601 28.8663 24.8101Z" stroke="#C9C9C9" stroke-width="3" stroke-linecap="round" stroke-linejoin="round"/>
<path d="M24.3564 35.3301V42.1901" stroke="#C9C9C9" stroke-width="3" stroke-linecap="round" stroke-linejoin="round"/>
</svg>
