<svg width="43" height="42" viewBox="0 0 43 42" fill="none" xmlns="http://www.w3.org/2000/svg">
<g clip-path="url(#clip0_1_346)">
<path d="M7.99 4.56995L1.5 13.7099L8.35 20.2799L9.34 19.5399" stroke="#C9C9C9" stroke-width="3" stroke-linecap="round" stroke-linejoin="round"/>
<path d="M27.53 2.15995L34.99 4.56995L34.57 6.50995C33.98 9.19995 33.65 11.9299 33.57 14.6799L33.22 27.4549L32.87 40.2299H10.12L9.37 13.1199C9.33 11.5299 9.14 9.94995 8.81 8.38995L8 4.56995L14.77 2.18995C18.62 1.26995 23.68 1.29995 27.54 2.15995H27.53Z" stroke="#C9C9C9" stroke-width="3" stroke-linecap="round" stroke-linejoin="round"/>
<path d="M34.9904 4.57007L41.4804 13.7101L34.7804 20.2801L33.6904 19.5401" stroke="#C9C9C9" stroke-width="3" stroke-linecap="round" stroke-linejoin="round"/>
<path d="M14.76 2.18003L16.07 3.76003C17.28 5.21003 19.23 6.07003 21.31 6.07003C23.81 6.07003 26.08 4.83003 27.13 2.89003L27.53 2.16003" stroke="#C9C9C9" stroke-width="3" stroke-linecap="round" stroke-linejoin="round"/>
<line x1="10.5" y1="16.5" x2="32.5" y2="16.5" stroke="#D6E2FF" stroke-width="3" stroke-linecap="round"/>
<line x1="10.5" y1="22.5" x2="32.5" y2="22.5" stroke="#D6E2FF" stroke-width="3" stroke-linecap="round"/>
<line x1="10.5" y1="29.5" x2="32.5" y2="29.5" stroke="#D6E2FF" stroke-width="3" stroke-linecap="round"/>
</g>
<defs>
<clipPath id="clip0_1_346">
<rect width="42.98" height="41.72" fill="white"/>
</clipPath>
</defs>
</svg>
