<svg width="48" height="48" viewBox="0 0 48 48" fill="none" xmlns="http://www.w3.org/2000/svg">
<path d="M39.88 19.26H34.19L30.78 13.08C30.15 11.94 28.56 11 27.25 11H17.8C16.49 11 15.03 11.99 14.55 13.21L12.17 19.26H4V30.45H10.64C10.64 30.39 10.64 30.32 10.64 30.26C10.64 27.45 12.91 25.18 15.72 25.18C18.53 25.18 20.8 27.45 20.8 30.26C20.8 30.32 20.8 30.39 20.8 30.45H28.02C28.02 30.39 28.01 30.32 28.01 30.26C28.01 27.45 30.28 25.18 33.09 25.18C35.9 25.18 38.17 27.45 38.17 30.26C38.17 30.32 38.17 30.39 38.16 30.45H43.7V23.06C43.7 20.96 42 19.26 39.9 19.26H39.88Z" stroke="#C9C9C9" stroke-width="3" stroke-linecap="round" stroke-linejoin="round"/>
<path d="M15.7099 25.1802C12.8999 25.1802 10.6299 27.4502 10.6299 30.2602C10.6299 30.3202 10.6299 30.3902 10.6299 30.4502C10.7299 33.1702 12.9599 35.3402 15.6999 35.3402C18.4399 35.3402 20.6699 33.1702 20.7699 30.4502C20.7699 30.3902 20.7699 30.3202 20.7699 30.2602C20.7699 27.4502 18.4999 25.1802 15.6899 25.1802H15.7099Z" stroke="#D6E2FF" stroke-width="3" stroke-linecap="round" stroke-linejoin="round"/>
<path d="M33.0702 25.1802C30.2602 25.1802 27.9902 27.4502 27.9902 30.2602C27.9902 30.3202 27.9902 30.3902 28.0002 30.4502C28.1002 33.1702 30.3302 35.3402 33.0702 35.3402C35.8102 35.3402 38.0402 33.1702 38.1402 30.4502C38.1402 30.3902 38.1502 30.3202 38.1502 30.2602C38.1502 27.4502 35.8802 25.1802 33.0702 25.1802Z" stroke="#D6E2FF" stroke-width="3" stroke-linecap="round" stroke-linejoin="round"/>
<path d="M40.5285 3.00255C41.0135 3.74509 41.298 4.63817 41.298 5.60015C41.298 8.16969 39.2763 10.2544 36.7844 10.2544C36.5172 10.2544 36.2549 10.2289 36 10.183C36.8117 11.4231 38.185 12.2371 39.744 12.2371C42.2359 12.2371 44.2576 10.1549 44.2576 7.5828C44.2576 5.28885 42.6492 3.3853 40.5309 3L40.5285 3.00255Z" stroke="#D6E2FF" stroke-linecap="round" stroke-linejoin="round"/>
</svg>
