<svg width="48" height="48" viewBox="0 0 48 48" fill="none" xmlns="http://www.w3.org/2000/svg">
<mask id="path-1-inside-1_1_355" fill="white">
<path fill-rule="evenodd" clip-rule="evenodd" d="M23.5728 10.3767C20.9813 10.3767 18.8218 8.18992 18.8218 5.56583C18.8218 2.94174 20.9813 0.755005 23.5728 0.755005C26.1642 0.755005 28.3237 2.94174 28.3237 5.56583C28.3237 8.18992 26.1642 10.3767 23.5728 10.3767ZM23.5728 3.08753C22.277 3.08753 21.1253 4.25379 21.1253 5.56583C21.1253 6.87788 22.277 8.04414 23.5728 8.04414C24.8685 8.04414 26.0202 6.87788 26.0202 5.56583C26.0202 4.25379 24.8685 3.08753 23.5728 3.08753ZM26.0202 46.6766C24.0047 46.6766 22.421 45.073 22.421 43.0321V38.9814C22.1456 39.0577 21.8509 39.0959 21.5562 39.0959H21.4123C21.4123 39.0959 20.6982 39.0156 20.1536 38.7952C20.0071 38.776 19.7396 38.7136 19.5408 38.5123L13.6381 34.1388C12.9183 33.5557 12.4863 32.8268 12.3424 31.8063C12.3424 30.9316 12.4863 30.0569 13.0622 29.328L16.5175 25.1003C16.5175 25.1003 17.3813 23.6425 17.3813 22.7678V17.6654H8.1673C6.43968 17.6654 5 16.2076 5 14.4582C5 12.7088 6.43968 11.251 8.1673 11.251H20.1167C20.1167 11.251 21.2684 11.8341 21.2684 12.4172C21.2684 13.0003 20.6925 13.5835 20.1167 13.5835H8.1673C8.1673 13.5835 7.30349 14.0208 7.30349 14.4582C7.30349 14.8955 7.7354 15.3329 8.1673 15.3329H18.533C18.533 15.3329 19.6848 15.916 19.6848 16.4991V21.7477H27.3159V16.2081C27.3159 16.2081 27.8918 15.0418 28.4677 15.0418H38.8334C38.8334 15.0418 39.6972 14.6045 39.6972 14.1671C39.6972 13.7298 39.2653 13.2924 38.8334 13.2924H26.884C26.884 13.2924 25.7323 12.7093 25.7323 12.1261C25.7323 11.543 26.3082 10.9599 26.884 10.9599H38.8334C40.561 10.9599 42.0007 12.4177 42.0007 14.1671C42.0007 15.9165 40.561 17.3743 38.8334 17.3743H29.6194V22.8722C29.6207 22.8861 29.6214 22.9 29.6214 22.9139C29.6214 22.9336 29.6207 22.9532 29.6194 22.9728V32.2442V32.5357V43.1779C29.6194 45.2188 28.0358 46.8224 26.0202 46.8224V46.6766ZM27.3159 24.0802H19.5562C19.362 25.0242 18.9408 25.8988 18.2451 26.7039L14.7898 30.9316C14.7898 30.9316 14.5019 31.369 14.5019 31.6605C14.5019 31.9521 14.6459 32.0979 14.9338 32.3894L19.907 36.0742C20.1218 36.0891 20.3442 36.1709 20.5485 36.326L20.9804 36.6176H21.9882C22.0784 36.6176 22.2818 36.503 22.421 36.2739V35.1781C22.3507 35.0445 22.2544 34.9301 22.1321 34.8682L21.3097 34.3824C21.1846 34.3742 21.0701 34.3451 20.9805 34.2846L18.533 32.8268C18.533 32.8268 17.8132 32.0979 17.8132 31.5147C17.8132 30.9316 17.9571 30.4943 18.389 30.2027L22.8521 26.8497C22.8521 26.8497 23.7159 26.5581 24.0038 26.8497C24.2917 27.1413 24.5797 27.4328 24.5797 27.8702V33.913C24.6708 34.0746 24.7245 34.2527 24.7245 34.4309V34.7382C24.8187 35.0635 24.8675 35.4032 24.8675 35.7429C24.8675 36.0513 24.8172 36.3596 24.7245 36.6572V43.0321C24.7245 43.0321 25.3004 44.3441 26.0202 44.3441C26.7401 44.3441 27.3159 43.761 27.3159 43.0321V32.2442V32.0984V24.0802ZM22.4202 32.3171V30.2027L20.6925 31.5147L20.9335 31.6611C21.1425 31.6578 21.3579 31.7063 21.5562 31.8068L22.4202 32.3171Z"/>
</mask>
<path fill-rule="evenodd" clip-rule="evenodd" d="M23.5728 10.3767C20.9813 10.3767 18.8218 8.18992 18.8218 5.56583C18.8218 2.94174 20.9813 0.755005 23.5728 0.755005C26.1642 0.755005 28.3237 2.94174 28.3237 5.56583C28.3237 8.18992 26.1642 10.3767 23.5728 10.3767ZM23.5728 3.08753C22.277 3.08753 21.1253 4.25379 21.1253 5.56583C21.1253 6.87788 22.277 8.04414 23.5728 8.04414C24.8685 8.04414 26.0202 6.87788 26.0202 5.56583C26.0202 4.25379 24.8685 3.08753 23.5728 3.08753ZM26.0202 46.6766C24.0047 46.6766 22.421 45.073 22.421 43.0321V38.9814C22.1456 39.0577 21.8509 39.0959 21.5562 39.0959H21.4123C21.4123 39.0959 20.6982 39.0156 20.1536 38.7952C20.0071 38.776 19.7396 38.7136 19.5408 38.5123L13.6381 34.1388C12.9183 33.5557 12.4863 32.8268 12.3424 31.8063C12.3424 30.9316 12.4863 30.0569 13.0622 29.328L16.5175 25.1003C16.5175 25.1003 17.3813 23.6425 17.3813 22.7678V17.6654H8.1673C6.43968 17.6654 5 16.2076 5 14.4582C5 12.7088 6.43968 11.251 8.1673 11.251H20.1167C20.1167 11.251 21.2684 11.8341 21.2684 12.4172C21.2684 13.0003 20.6925 13.5835 20.1167 13.5835H8.1673C8.1673 13.5835 7.30349 14.0208 7.30349 14.4582C7.30349 14.8955 7.7354 15.3329 8.1673 15.3329H18.533C18.533 15.3329 19.6848 15.916 19.6848 16.4991V21.7477H27.3159V16.2081C27.3159 16.2081 27.8918 15.0418 28.4677 15.0418H38.8334C38.8334 15.0418 39.6972 14.6045 39.6972 14.1671C39.6972 13.7298 39.2653 13.2924 38.8334 13.2924H26.884C26.884 13.2924 25.7323 12.7093 25.7323 12.1261C25.7323 11.543 26.3082 10.9599 26.884 10.9599H38.8334C40.561 10.9599 42.0007 12.4177 42.0007 14.1671C42.0007 15.9165 40.561 17.3743 38.8334 17.3743H29.6194V22.8722C29.6207 22.8861 29.6214 22.9 29.6214 22.9139C29.6214 22.9336 29.6207 22.9532 29.6194 22.9728V32.2442V32.5357V43.1779C29.6194 45.2188 28.0358 46.8224 26.0202 46.8224V46.6766ZM27.3159 24.0802H19.5562C19.362 25.0242 18.9408 25.8988 18.2451 26.7039L14.7898 30.9316C14.7898 30.9316 14.5019 31.369 14.5019 31.6605C14.5019 31.9521 14.6459 32.0979 14.9338 32.3894L19.907 36.0742C20.1218 36.0891 20.3442 36.1709 20.5485 36.326L20.9804 36.6176H21.9882C22.0784 36.6176 22.2818 36.503 22.421 36.2739V35.1781C22.3507 35.0445 22.2544 34.9301 22.1321 34.8682L21.3097 34.3824C21.1846 34.3742 21.0701 34.3451 20.9805 34.2846L18.533 32.8268C18.533 32.8268 17.8132 32.0979 17.8132 31.5147C17.8132 30.9316 17.9571 30.4943 18.389 30.2027L22.8521 26.8497C22.8521 26.8497 23.7159 26.5581 24.0038 26.8497C24.2917 27.1413 24.5797 27.4328 24.5797 27.8702V33.913C24.6708 34.0746 24.7245 34.2527 24.7245 34.4309V34.7382C24.8187 35.0635 24.8675 35.4032 24.8675 35.7429C24.8675 36.0513 24.8172 36.3596 24.7245 36.6572V43.0321C24.7245 43.0321 25.3004 44.3441 26.0202 44.3441C26.7401 44.3441 27.3159 43.761 27.3159 43.0321V32.2442V32.0984V24.0802ZM22.4202 32.3171V30.2027L20.6925 31.5147L20.9335 31.6611C21.1425 31.6578 21.3579 31.7063 21.5562 31.8068L22.4202 32.3171Z" fill="#C9C9C9"/>
<path d="M26.0202 46.6766H26.3202V46.3766H26.0202V46.6766ZM22.421 38.9814H22.721V38.5869L22.3409 38.6923L22.421 38.9814ZM21.4123 39.0959L21.3787 39.394L21.3955 39.3959H21.4123V39.0959ZM20.1536 38.7952L20.2661 38.5171L20.2307 38.5028L20.1928 38.4978L20.1536 38.7952ZM19.5408 38.5123L19.7542 38.3015L19.738 38.285L19.7194 38.2713L19.5408 38.5123ZM13.6381 34.1388L13.4491 34.3722L13.4595 34.3799L13.6381 34.1388ZM12.3424 31.8063H12.0424V31.8274L12.0453 31.8482L12.3424 31.8063ZM13.0622 29.328L12.8299 29.1381L12.8268 29.142L13.0622 29.328ZM16.5175 25.1003L16.7497 25.2902L16.764 25.2727L16.7756 25.2532L16.5175 25.1003ZM17.3813 17.6654H17.6813V17.3654H17.3813V17.6654ZM20.1167 11.251L20.2522 10.9833L20.1883 10.951H20.1167V11.251ZM8.1673 13.5835V13.2835H8.09569L8.03179 13.3158L8.1673 13.5835ZM18.533 15.3329L18.6685 15.0652L18.6046 15.0329H18.533V15.3329ZM19.6848 21.7477H19.3848V22.0477H19.6848V21.7477ZM27.3159 21.7477V22.0477H27.6159V21.7477H27.3159ZM27.3159 16.2081L27.047 16.0752L27.0159 16.138V16.2081H27.3159ZM38.8334 15.0418V15.3418H38.905L38.9689 15.3095L38.8334 15.0418ZM26.884 13.2924L26.7485 13.5601L26.8124 13.5924H26.884V13.2924ZM29.6194 17.3743V17.0743H29.3194V17.3743H29.6194ZM29.6194 22.8722H29.3194V22.886L29.3207 22.8997L29.6194 22.8722ZM29.6194 22.9728L29.3201 22.9532L29.3194 22.963V22.9728H29.6194ZM26.0202 46.8224H25.7202V47.1224H26.0202V46.8224ZM27.3159 24.0802H27.6159V23.7802H27.3159V24.0802ZM19.5562 24.0802V23.7802H19.3117L19.2624 24.0197L19.5562 24.0802ZM18.2451 26.7039L18.018 26.5077L18.0128 26.5141L18.2451 26.7039ZM14.7898 30.9316L14.5576 30.7418L14.5478 30.7537L14.5393 30.7666L14.7898 30.9316ZM14.9338 32.3894L14.7204 32.6002L14.7366 32.6167L14.7552 32.6305L14.9338 32.3894ZM19.907 36.0742L19.7284 36.3153L19.7988 36.3674L19.8862 36.3735L19.907 36.0742ZM20.5485 36.326L20.367 36.5649L20.3737 36.57L20.3806 36.5747L20.5485 36.326ZM20.9804 36.6176L20.8125 36.8662L20.8886 36.9176H20.9804V36.6176ZM22.421 36.2739L22.6774 36.4296L22.721 36.3578V36.2739H22.421ZM22.421 35.1781H22.721V35.1039L22.6865 35.0383L22.421 35.1781ZM22.1321 34.8682L21.9796 35.1265L21.9879 35.1314L21.9966 35.1358L22.1321 34.8682ZM21.3097 34.3824L21.4623 34.1241L21.4006 34.0877L21.3292 34.083L21.3097 34.3824ZM20.9805 34.2846L21.1483 34.036L21.1413 34.0312L21.134 34.0269L20.9805 34.2846ZM18.533 32.8268L18.3196 33.0376L18.3465 33.0649L18.3795 33.0845L18.533 32.8268ZM18.389 30.2027L18.5569 30.4513L18.5632 30.4471L18.5692 30.4426L18.389 30.2027ZM22.8521 26.8497L22.7561 26.5655L22.7104 26.5809L22.6719 26.6098L22.8521 26.8497ZM24.0038 26.8497L23.7904 27.0605H23.7904L24.0038 26.8497ZM24.5797 33.913H24.2797V33.9918L24.3184 34.0604L24.5797 33.913ZM24.7245 34.7382H24.4245V34.7808L24.4363 34.8216L24.7245 34.7382ZM24.7245 36.6572L24.4381 36.5681L24.4245 36.6116V36.6572H24.7245ZM24.7245 43.0321H24.4245V43.095L24.4498 43.1526L24.7245 43.0321ZM22.4202 30.2027H22.7202V29.5982L22.2387 29.9638L22.4202 30.2027ZM22.4202 32.3171L22.2676 32.5754L22.7202 32.8427V32.3171H22.4202ZM20.6925 31.5147L20.5111 31.2758L20.1602 31.5423L20.5368 31.7711L20.6925 31.5147ZM20.9335 31.6611L20.7777 31.9175L20.8517 31.9625L20.9383 31.9611L20.9335 31.6611ZM21.5562 31.8068L21.7088 31.5485L21.7004 31.5435L21.6918 31.5391L21.5562 31.8068ZM18.5218 5.56583C18.5218 8.35205 20.8121 10.6767 23.5728 10.6767V10.0767C21.1505 10.0767 19.1218 8.02779 19.1218 5.56583H18.5218ZM23.5728 0.455005C20.8121 0.455005 18.5218 2.77961 18.5218 5.56583H19.1218C19.1218 3.10388 21.1505 1.055 23.5728 1.055V0.455005ZM28.6237 5.56583C28.6237 2.77961 26.3334 0.455005 23.5728 0.455005V1.055C25.995 1.055 28.0237 3.10388 28.0237 5.56583H28.6237ZM23.5728 10.6767C26.3334 10.6767 28.6237 8.35205 28.6237 5.56583H28.0237C28.0237 8.02779 25.995 10.0767 23.5728 10.0767V10.6767ZM21.4253 5.56583C21.4253 4.41592 22.4463 3.38753 23.5728 3.38753V2.78753C22.1078 2.78753 20.8253 4.09166 20.8253 5.56583H21.4253ZM23.5728 7.74414C22.4463 7.74414 21.4253 6.71574 21.4253 5.56583H20.8253C20.8253 7.04001 22.1078 8.34414 23.5728 8.34414V7.74414ZM25.7202 5.56583C25.7202 6.71574 24.6993 7.74414 23.5728 7.74414V8.34414C25.0377 8.34414 26.3202 7.04001 26.3202 5.56583H25.7202ZM23.5728 3.38753C24.6993 3.38753 25.7202 4.41592 25.7202 5.56583H26.3202C26.3202 4.09166 25.0377 2.78753 23.5728 2.78753V3.38753ZM22.121 43.0321C22.121 45.2352 23.8355 46.9766 26.0202 46.9766V46.3766C24.1739 46.3766 22.721 44.9109 22.721 43.0321H22.121ZM22.121 38.9814V43.0321H22.721V38.9814H22.121ZM21.5562 39.3959C21.8763 39.3959 22.198 39.3545 22.5012 39.2705L22.3409 38.6923C22.0932 38.7609 21.8256 38.7959 21.5562 38.7959V39.3959ZM21.4123 39.3959H21.5562V38.7959H21.4123V39.3959ZM20.0411 39.0733C20.3396 39.1941 20.676 39.2736 20.9303 39.3227C21.059 39.3476 21.1699 39.3653 21.249 39.3768C21.2886 39.3825 21.3204 39.3868 21.3426 39.3896C21.3537 39.391 21.3624 39.3921 21.3685 39.3928C21.3715 39.3932 21.3739 39.3934 21.3756 39.3937C21.3765 39.3937 21.3772 39.3938 21.3777 39.3939C21.378 39.3939 21.3782 39.3939 21.3784 39.394C21.3784 39.394 21.3785 39.394 21.3786 39.394C21.3786 39.394 21.3787 39.394 21.3787 39.394C21.3787 39.394 21.3787 39.394 21.4123 39.0959C21.4458 38.7978 21.4459 38.7978 21.4459 38.7978C21.4459 38.7978 21.4459 38.7978 21.4459 38.7978C21.4459 38.7978 21.4459 38.7978 21.4459 38.7978C21.4459 38.7978 21.4459 38.7978 21.4458 38.7978C21.4456 38.7977 21.4453 38.7977 21.4448 38.7976C21.4438 38.7975 21.4421 38.7973 21.4398 38.7971C21.4352 38.7965 21.428 38.7956 21.4185 38.7944C21.3995 38.792 21.3712 38.7882 21.3354 38.783C21.2636 38.7726 21.162 38.7564 21.0441 38.7336C20.8052 38.6875 20.5122 38.6167 20.2661 38.5171L20.0411 39.0733ZM19.3273 38.7231C19.5957 38.9948 19.9432 39.0701 20.1145 39.0927L20.1928 38.4978C20.071 38.4818 19.8836 38.4325 19.7542 38.3015L19.3273 38.7231ZM13.4595 34.3799L19.3622 38.7534L19.7194 38.2713L13.8167 33.8978L13.4595 34.3799ZM12.0453 31.8482C12.1998 32.9433 12.67 33.7407 13.4493 34.3719L13.8269 33.9057C13.1665 33.3707 12.7729 32.7103 12.6394 31.7644L12.0453 31.8482ZM12.8268 29.142C12.1901 29.9479 12.0424 30.903 12.0424 31.8063H12.6424C12.6424 30.9602 12.7826 30.1659 13.2976 29.514L12.8268 29.142ZM16.2852 24.9105L12.8299 29.1382L13.2945 29.5179L16.7497 25.2902L16.2852 24.9105ZM17.0813 22.7678C17.0813 23.1334 16.8926 23.6633 16.6764 24.1376C16.5719 24.367 16.4671 24.5704 16.3883 24.7166C16.349 24.7895 16.3164 24.8479 16.2937 24.8878C16.2824 24.9077 16.2736 24.9229 16.2678 24.933C16.2648 24.9381 16.2626 24.9418 16.2612 24.9443C16.2605 24.9455 16.26 24.9463 16.2597 24.9469C16.2595 24.9471 16.2594 24.9473 16.2594 24.9474C16.2593 24.9474 16.2593 24.9474 16.2593 24.9474L16.2593 24.9474C16.2593 24.9474 16.2594 24.9474 16.5175 25.1003C16.7756 25.2532 16.7756 25.2532 16.7756 25.2532C16.7756 25.2531 16.7756 25.2531 16.7757 25.253C16.7757 25.2529 16.7758 25.2528 16.7759 25.2527C16.776 25.2524 16.7762 25.2521 16.7765 25.2516C16.777 25.2508 16.7777 25.2495 16.7787 25.2479C16.7805 25.2448 16.7832 25.2403 16.7866 25.2344C16.7933 25.2227 16.8031 25.2058 16.8154 25.1842C16.84 25.1409 16.8749 25.0785 16.9165 25.0011C16.9998 24.8466 17.1109 24.6309 17.2223 24.3865C17.438 23.9132 17.6813 23.2769 17.6813 22.7678H17.0813ZM17.0813 17.6654V22.7678H17.6813V17.6654H17.0813ZM8.1673 17.9654H17.3813V17.3654H8.1673V17.9654ZM4.7 14.4582C4.7 16.3697 6.27047 17.9654 8.1673 17.9654V17.3654C6.6089 17.3654 5.3 16.0454 5.3 14.4582H4.7ZM8.1673 10.951C6.27047 10.951 4.7 12.5466 4.7 14.4582H5.3C5.3 12.8709 6.6089 11.551 8.1673 11.551V10.951ZM20.1167 10.951H8.1673V11.551H20.1167V10.951ZM21.5684 12.4172C21.5684 12.1742 21.4505 11.9633 21.3239 11.803C21.194 11.6387 21.0283 11.4937 20.874 11.3765C20.718 11.258 20.5637 11.1605 20.4492 11.0929C20.3917 11.0589 20.3435 11.032 20.3092 11.0135C20.2921 11.0042 20.2784 10.9969 20.2687 10.9918C20.2638 10.9893 20.26 10.9873 20.2572 10.9859C20.2558 10.9852 20.2547 10.9846 20.2539 10.9842C20.2534 10.984 20.2531 10.9838 20.2528 10.9836C20.2527 10.9836 20.2525 10.9835 20.2524 10.9834C20.2524 10.9834 20.2523 10.9834 20.2523 10.9834C20.2522 10.9833 20.2522 10.9833 20.1167 11.251C19.9812 11.5186 19.9811 11.5186 19.9811 11.5186C19.9811 11.5186 19.981 11.5185 19.981 11.5185C19.981 11.5185 19.9809 11.5185 19.9809 11.5185C19.9809 11.5185 19.981 11.5185 19.9811 11.5186C19.9814 11.5187 19.9819 11.519 19.9827 11.5194C19.9843 11.5202 19.9869 11.5216 19.9905 11.5235C19.9977 11.5272 20.0088 11.5331 20.0231 11.5409C20.0518 11.5564 20.0936 11.5797 20.1441 11.6095C20.2456 11.6694 20.3791 11.7541 20.5111 11.8543C20.6448 11.9558 20.7669 12.0659 20.8531 12.175C20.9423 12.288 20.9684 12.3686 20.9684 12.4172H21.5684ZM20.1167 13.8835C20.5035 13.8835 20.8643 13.6907 21.1219 13.4298C21.3798 13.1687 21.5684 12.805 21.5684 12.4172H20.9684C20.9684 12.6125 20.869 12.832 20.695 13.0082C20.5208 13.1847 20.3057 13.2835 20.1167 13.2835V13.8835ZM8.1673 13.8835H20.1167V13.2835H8.1673V13.8835ZM7.60349 14.4582C7.60349 14.446 7.61156 14.4018 7.67386 14.323C7.733 14.2481 7.81916 14.1699 7.91684 14.0957C8.01281 14.0228 8.1104 13.961 8.18491 13.917C8.22185 13.8951 8.25238 13.8781 8.27323 13.8668C8.28364 13.8612 8.29159 13.857 8.29667 13.8543C8.29921 13.853 8.30102 13.852 8.30207 13.8515C8.30259 13.8512 8.30291 13.8511 8.30304 13.851C8.30311 13.851 8.30312 13.851 8.30308 13.851C8.30306 13.851 8.30303 13.851 8.30299 13.851C8.30296 13.8511 8.30292 13.8511 8.30291 13.8511C8.30286 13.8511 8.30281 13.8511 8.1673 13.5835C8.03179 13.3158 8.03173 13.3159 8.03168 13.3159C8.03165 13.3159 8.03159 13.3159 8.03154 13.316C8.03144 13.316 8.03133 13.3161 8.03121 13.3161C8.03096 13.3162 8.03066 13.3164 8.03031 13.3166C8.02961 13.3169 8.02869 13.3174 8.02758 13.318C8.02535 13.3191 8.02232 13.3207 8.01853 13.3227C8.01096 13.3266 8.00035 13.3323 7.98714 13.3394C7.96075 13.3537 7.92379 13.3743 7.87976 13.4003C7.7923 13.452 7.67393 13.5268 7.55396 13.6179C7.43568 13.7077 7.30589 13.8209 7.20306 13.951C7.1034 14.0772 7.00349 14.2516 7.00349 14.4582H7.60349ZM8.1673 15.0329C8.05026 15.0329 7.90714 14.9705 7.78689 14.8487C7.66687 14.7272 7.60349 14.5806 7.60349 14.4582H7.00349C7.00349 14.7731 7.15606 15.0638 7.35998 15.2703C7.56366 15.4766 7.85244 15.6329 8.1673 15.6329V15.0329ZM18.533 15.0329H8.1673V15.6329H18.533V15.0329ZM19.9848 16.4991C19.9848 16.2562 19.8669 16.0452 19.7402 15.8849C19.6104 15.7206 19.4446 15.5756 19.2903 15.4584C19.1344 15.34 18.98 15.2424 18.8656 15.1748C18.808 15.1408 18.7598 15.114 18.7256 15.0954C18.7084 15.0861 18.6947 15.0788 18.685 15.0737C18.6802 15.0712 18.6763 15.0692 18.6736 15.0678C18.6722 15.0671 18.6711 15.0665 18.6702 15.0661C18.6698 15.0659 18.6694 15.0657 18.6692 15.0655C18.669 15.0655 18.6689 15.0654 18.6688 15.0654C18.6687 15.0653 18.6687 15.0653 18.6686 15.0653C18.6686 15.0652 18.6685 15.0652 18.533 15.3329C18.3975 15.6005 18.3975 15.6005 18.3974 15.6005C18.3974 15.6005 18.3974 15.6004 18.3973 15.6004C18.3973 15.6004 18.3973 15.6004 18.3973 15.6004C18.3973 15.6004 18.3974 15.6004 18.3975 15.6005C18.3977 15.6006 18.3983 15.6009 18.3991 15.6013C18.4007 15.6021 18.4033 15.6035 18.4069 15.6054C18.4141 15.6091 18.4251 15.615 18.4395 15.6228C18.4682 15.6383 18.51 15.6616 18.5604 15.6914C18.6619 15.7514 18.7955 15.836 18.9274 15.9362C19.0611 16.0378 19.1833 16.1478 19.2694 16.2569C19.3587 16.3699 19.3848 16.4505 19.3848 16.4991H19.9848ZM19.9848 21.7477V16.4991H19.3848V21.7477H19.9848ZM19.6848 22.0477H27.3159V21.4477H19.6848V22.0477ZM27.0159 16.2081V21.7477H27.6159V16.2081H27.0159ZM28.4677 14.7418C28.2241 14.7418 28.014 14.8629 27.8559 14.9909C27.6935 15.1225 27.5504 15.2904 27.4348 15.4464C27.3179 15.6042 27.2217 15.7603 27.155 15.8761C27.1215 15.9343 27.095 15.983 27.0766 16.0177C27.0675 16.035 27.0603 16.0488 27.0553 16.0586C27.0528 16.0635 27.0509 16.0674 27.0495 16.0702C27.0488 16.0716 27.0482 16.0727 27.0478 16.0735C27.0476 16.074 27.0474 16.0743 27.0473 16.0746C27.0472 16.0747 27.0471 16.0749 27.0471 16.075C27.0471 16.075 27.047 16.0751 27.047 16.0751C27.047 16.0752 27.047 16.0752 27.3159 16.2081C27.5849 16.3409 27.5849 16.3409 27.5849 16.341C27.5849 16.341 27.5849 16.341 27.5849 16.341C27.5848 16.3411 27.5848 16.3411 27.5848 16.3411C27.5848 16.3411 27.5849 16.341 27.5849 16.3409C27.5851 16.3406 27.5854 16.3401 27.5858 16.3393C27.5866 16.3376 27.5879 16.335 27.5898 16.3313C27.5935 16.324 27.5993 16.3128 27.607 16.2982C27.6224 16.2691 27.6454 16.2267 27.6749 16.1756C27.7342 16.0727 27.8179 15.9373 27.9169 15.8035C28.0173 15.6679 28.1261 15.5442 28.2336 15.4571C28.3455 15.3665 28.4234 15.3418 28.4677 15.3418V14.7418ZM38.8334 14.7418H28.4677V15.3418H38.8334V14.7418ZM39.3972 14.1671C39.3972 14.1792 39.3892 14.2234 39.3269 14.3023C39.2677 14.3772 39.1815 14.4554 39.0839 14.5295C38.9879 14.6024 38.8903 14.6643 38.8158 14.7083C38.7789 14.7302 38.7483 14.7471 38.7275 14.7585C38.7171 14.7641 38.7091 14.7683 38.704 14.771C38.7015 14.7723 38.6997 14.7732 38.6986 14.7738C38.6981 14.774 38.6978 14.7742 38.6977 14.7743C38.6976 14.7743 38.6976 14.7743 38.6976 14.7743C38.6976 14.7743 38.6977 14.7743 38.6977 14.7742C38.6977 14.7742 38.6978 14.7742 38.6978 14.7742C38.6978 14.7742 38.6979 14.7742 38.8334 15.0418C38.9689 15.3095 38.969 15.3094 38.969 15.3094C38.9691 15.3094 38.9691 15.3093 38.9692 15.3093C38.9693 15.3093 38.9694 15.3092 38.9695 15.3092C38.9697 15.309 38.97 15.3089 38.9704 15.3087C38.9711 15.3083 38.972 15.3079 38.9731 15.3073C38.9754 15.3062 38.9784 15.3046 38.9822 15.3026C38.9898 15.2986 39.0004 15.293 39.0136 15.2859C39.04 15.2715 39.0769 15.2509 39.121 15.2249C39.2084 15.1733 39.3268 15.0985 39.4468 15.0074C39.565 14.9175 39.6948 14.8044 39.7976 14.6743C39.8973 14.5481 39.9972 14.3736 39.9972 14.1671H39.3972ZM38.8334 13.5924C38.9505 13.5924 39.0936 13.6548 39.2138 13.7766C39.3338 13.8981 39.3972 14.0447 39.3972 14.1671H39.9972C39.9972 13.8522 39.8446 13.5614 39.6407 13.355C39.4371 13.1487 39.1483 12.9924 38.8334 12.9924V13.5924ZM26.884 13.5924H38.8334V12.9924H26.884V13.5924ZM25.4323 12.1261C25.4323 12.3691 25.5502 12.58 25.6769 12.7404C25.8067 12.9047 25.9725 13.0497 26.1267 13.1669C26.2827 13.2853 26.4371 13.3829 26.5515 13.4505C26.609 13.4845 26.6572 13.5113 26.6915 13.5299C26.7087 13.5392 26.7224 13.5465 26.732 13.5515C26.7369 13.5541 26.7407 13.5561 26.7435 13.5575C26.7449 13.5582 26.746 13.5588 26.7468 13.5592C26.7473 13.5594 26.7476 13.5596 26.7479 13.5597C26.748 13.5598 26.7482 13.5599 26.7483 13.5599C26.7483 13.56 26.7484 13.56 26.7484 13.56C26.7485 13.56 26.7485 13.5601 26.884 13.2924C27.0196 13.0248 27.0196 13.0248 27.0196 13.0248C27.0197 13.0248 27.0197 13.0248 27.0197 13.0248C27.0197 13.0249 27.0198 13.0249 27.0198 13.0249C27.0198 13.0249 27.0197 13.0248 27.0196 13.0248C27.0193 13.0246 27.0188 13.0244 27.018 13.024C27.0164 13.0231 27.0138 13.0218 27.0102 13.0199C27.003 13.0161 26.9919 13.0103 26.9776 13.0025C26.9489 12.9869 26.9071 12.9637 26.8567 12.9339C26.7552 12.8739 26.6216 12.7893 26.4896 12.689C26.3559 12.5875 26.2338 12.4774 26.1477 12.3684C26.0584 12.2554 26.0323 12.1747 26.0323 12.1261H25.4323ZM26.884 10.6599C26.4972 10.6599 26.1364 10.8526 25.8788 11.1135C25.6209 11.3747 25.4323 11.7383 25.4323 12.1261H26.0323C26.0323 11.9308 26.1317 11.7113 26.3057 11.5351C26.4799 11.3587 26.695 11.2599 26.884 11.2599V10.6599ZM38.8334 10.6599H26.884V11.2599H38.8334V10.6599ZM42.3007 14.1671C42.3007 12.2556 40.7302 10.6599 38.8334 10.6599V11.2599C40.3918 11.2599 41.7007 12.5798 41.7007 14.1671H42.3007ZM38.8334 17.6743C40.7302 17.6743 42.3007 16.0786 42.3007 14.1671H41.7007C41.7007 15.7544 40.3918 17.0743 38.8334 17.0743V17.6743ZM29.6194 17.6743H38.8334V17.0743H29.6194V17.6743ZM29.9194 22.8722V17.3743H29.3194V22.8722H29.9194ZM29.3207 22.8997C29.3212 22.9047 29.3214 22.9094 29.3214 22.9139H29.9214C29.9214 22.8906 29.9203 22.8675 29.9182 22.8446L29.3207 22.8997ZM29.3214 22.9139C29.3214 22.9269 29.3209 22.94 29.3201 22.9532L29.9188 22.9924C29.9205 22.9664 29.9214 22.9402 29.9214 22.9139H29.3214ZM29.9194 32.2442V22.9728H29.3194V32.2442H29.9194ZM29.9194 32.5357V32.2442H29.3194V32.5357H29.9194ZM29.9194 43.1779V32.5357H29.3194V43.1779H29.9194ZM26.0202 47.1224C28.205 47.1224 29.9194 45.3809 29.9194 43.1779H29.3194C29.3194 45.0567 27.8666 46.5224 26.0202 46.5224V47.1224ZM25.7202 46.6766V46.8224H26.3202V46.6766H25.7202ZM27.3159 23.7802H19.5562V24.3802H27.3159V23.7802ZM18.4721 26.9001C19.2007 26.0568 19.6454 25.1357 19.8501 24.1406L19.2624 24.0197C19.0787 24.9128 18.6808 25.7408 18.0181 26.5078L18.4721 26.9001ZM15.0221 31.1215L18.4774 26.8938L18.0128 26.5141L14.5576 30.7418L15.0221 31.1215ZM14.8019 31.6605C14.8019 31.5903 14.8441 31.4629 14.9149 31.3196C14.9467 31.2552 14.9787 31.1983 15.0029 31.1574C15.015 31.1371 15.0248 31.1212 15.0315 31.1106C15.0348 31.1053 15.0373 31.1014 15.0388 31.099C15.0396 31.0978 15.0401 31.097 15.0404 31.0966C15.0405 31.0964 15.0406 31.0963 15.0406 31.0963C15.0406 31.0963 15.0406 31.0963 15.0406 31.0964C15.0405 31.0964 15.0405 31.0964 15.0405 31.0964C15.0405 31.0965 15.0405 31.0965 15.0405 31.0965C15.0404 31.0965 15.0404 31.0966 14.7898 30.9316C14.5393 30.7666 14.5392 30.7667 14.5392 30.7667C14.5392 30.7667 14.5392 30.7668 14.5392 30.7668C14.5391 30.7669 14.5391 30.7669 14.539 30.767C14.5389 30.7672 14.5388 30.7674 14.5387 30.7676C14.5384 30.768 14.538 30.7685 14.5376 30.7691C14.5368 30.7704 14.5357 30.7721 14.5344 30.7742C14.5317 30.7783 14.528 30.7841 14.5235 30.7913C14.5144 30.8058 14.5017 30.8263 14.4868 30.8516C14.457 30.9019 14.4171 30.9725 14.3769 31.0539C14.3037 31.2022 14.2019 31.4392 14.2019 31.6605H14.8019ZM15.1473 32.1786C14.8429 31.8705 14.8019 31.8099 14.8019 31.6605H14.2019C14.2019 32.0943 14.4488 32.3253 14.7204 32.6002L15.1473 32.1786ZM20.0856 35.8332L15.1124 32.1484L14.7552 32.6305L19.7284 36.3153L20.0856 35.8332ZM20.7299 36.0871C20.4822 35.899 20.2046 35.7941 19.9277 35.7749L19.8862 36.3735C20.039 36.3841 20.2062 36.4428 20.367 36.5649L20.7299 36.0871ZM21.1482 36.3689L20.7163 36.0774L20.3806 36.5747L20.8125 36.8662L21.1482 36.3689ZM21.9882 36.3176H20.9804V36.9176H21.9882V36.3176ZM22.1646 36.1181C22.1168 36.1969 22.0592 36.2534 22.0109 36.2882C21.9867 36.3056 21.968 36.3153 21.9576 36.3197C21.9428 36.326 21.955 36.3176 21.9882 36.3176V36.9176C22.1279 36.9176 22.2647 36.8448 22.3616 36.7751C22.4723 36.6953 22.5861 36.58 22.6774 36.4296L22.1646 36.1181ZM22.121 35.1781V36.2739H22.721V35.1781H22.121ZM21.9966 35.1358C22.0441 35.1599 22.1022 35.2166 22.1556 35.3179L22.6865 35.0383C22.5991 34.8725 22.4647 34.7003 22.2676 34.6005L21.9966 35.1358ZM21.1571 34.6407L21.9796 35.1265L22.2847 34.6099L21.4623 34.1241L21.1571 34.6407ZM20.8126 34.5333C20.9622 34.6342 21.135 34.6717 21.2902 34.6818L21.3292 34.083C21.2342 34.0768 21.1781 34.0561 21.1483 34.036L20.8126 34.5333ZM18.3795 33.0845L20.827 34.5424L21.134 34.0269L18.6865 32.569L18.3795 33.0845ZM17.5132 31.5147C17.5132 31.9076 17.745 32.303 17.9279 32.5624C18.0253 32.7004 18.1221 32.818 18.1944 32.9009C18.2306 32.9425 18.2611 32.9758 18.2829 32.9991C18.2938 33.0108 18.3025 33.02 18.3087 33.0264C18.3118 33.0297 18.3143 33.0322 18.3161 33.0341C18.3171 33.035 18.3178 33.0358 18.3184 33.0364C18.3187 33.0367 18.3189 33.0369 18.3191 33.0371C18.3192 33.0372 18.3193 33.0373 18.3194 33.0374C18.3194 33.0374 18.3194 33.0375 18.3195 33.0375C18.3195 33.0375 18.3196 33.0376 18.533 32.8268C18.7465 32.616 18.7465 32.616 18.7465 32.6161C18.7466 32.6161 18.7466 32.6161 18.7466 32.6161C18.7466 32.6162 18.7467 32.6162 18.7467 32.6162C18.7467 32.6162 18.7467 32.6162 18.7466 32.6161C18.7465 32.616 18.7462 32.6157 18.7458 32.6152C18.7449 32.6143 18.7433 32.6127 18.7411 32.6105C18.7368 32.606 18.7301 32.5989 18.7213 32.5895C18.7037 32.5707 18.6779 32.5425 18.6467 32.5067C18.584 32.4347 18.5008 32.3336 18.4182 32.2165C18.2413 31.9656 18.1132 31.705 18.1132 31.5147H17.5132ZM18.2212 29.9541C17.6733 30.3239 17.5132 30.8804 17.5132 31.5147H18.1132C18.1132 30.9828 18.241 30.6646 18.5569 30.4513L18.2212 29.9541ZM22.6719 26.6098L18.2088 29.9628L18.5692 30.4426L23.0323 27.0896L22.6719 26.6098ZM24.2173 26.6389C24.0758 26.4957 23.8878 26.4457 23.7359 26.4286C23.5789 26.4109 23.4158 26.4234 23.277 26.4435C23.136 26.4639 23.0071 26.4941 22.9143 26.5188C22.8675 26.5313 22.8291 26.5426 22.8019 26.5509C22.7883 26.555 22.7774 26.5585 22.7697 26.561C22.7658 26.5622 22.7627 26.5633 22.7605 26.564C22.7593 26.5644 22.7584 26.5647 22.7577 26.5649C22.7573 26.5651 22.757 26.5652 22.7567 26.5652C22.7566 26.5653 22.7565 26.5653 22.7564 26.5654C22.7563 26.5654 22.7563 26.5654 22.7562 26.5654C22.7562 26.5654 22.7561 26.5655 22.8521 26.8497C22.948 27.1339 22.948 27.134 22.9479 27.134C22.9479 27.134 22.9478 27.134 22.9478 27.134C22.9478 27.134 22.9477 27.134 22.9477 27.134C22.9477 27.1341 22.9477 27.1341 22.9477 27.134C22.9478 27.134 22.9481 27.1339 22.9486 27.1337C22.9497 27.1334 22.9514 27.1328 22.954 27.132C22.959 27.1304 22.967 27.1278 22.9776 27.1246C22.9987 27.1181 23.03 27.1089 23.0688 27.0986C23.147 27.0777 23.252 27.0533 23.3629 27.0373C23.476 27.0209 23.5829 27.0151 23.6688 27.0248C23.7599 27.0351 23.7878 27.0579 23.7904 27.0605L24.2173 26.6389ZM24.8797 27.8702C24.8797 27.2906 24.4888 26.9138 24.2173 26.6389L23.7904 27.0605C24.0947 27.3687 24.2797 27.5751 24.2797 27.8702H24.8797ZM24.8797 33.913V27.8702H24.2797V33.913H24.8797ZM25.0245 34.4309C25.0245 34.1927 24.953 33.9642 24.841 33.7657L24.3184 34.0604C24.3886 34.1849 24.4245 34.3128 24.4245 34.4309H25.0245ZM25.0245 34.7382V34.4309H24.4245V34.7382H25.0245ZM25.1675 35.7429C25.1675 35.3746 25.1146 35.0069 25.0127 34.6548L24.4363 34.8216C24.5227 35.1202 24.5675 35.4318 24.5675 35.7429H25.1675ZM25.011 36.7464C25.1119 36.4223 25.1675 36.0838 25.1675 35.7429H24.5675C24.5675 36.0187 24.5225 36.297 24.4381 36.5681L25.011 36.7464ZM25.0245 43.0321V36.6572H24.4245V43.0321H25.0245ZM26.0202 44.0441C25.9332 44.0441 25.8265 44.0039 25.7004 43.904C25.5756 43.8051 25.4549 43.6657 25.3467 43.5139C25.2396 43.3638 25.152 43.2119 25.0908 43.0965C25.0604 43.0392 25.0369 42.9917 25.0213 42.959C25.0135 42.9427 25.0077 42.9302 25.004 42.9221C25.0021 42.918 25.0008 42.915 25 42.9132C24.9996 42.9123 24.9993 42.9117 24.9992 42.9114C24.9991 42.9113 24.9991 42.9112 24.9991 42.9112C24.9991 42.9112 24.9991 42.9113 24.9991 42.9113C24.9991 42.9113 24.9992 42.9114 24.9992 42.9114C24.9992 42.9114 24.9992 42.9115 24.7245 43.0321C24.4498 43.1526 24.4498 43.1527 24.4499 43.1528C24.4499 43.1528 24.4499 43.1529 24.4499 43.153C24.45 43.1531 24.4501 43.1532 24.4501 43.1534C24.4503 43.1537 24.4505 43.1541 24.4507 43.1546C24.4511 43.1556 24.4517 43.1568 24.4524 43.1584C24.4538 43.1616 24.4558 43.166 24.4583 43.1715C24.4634 43.1826 24.4707 43.1983 24.48 43.2178C24.4987 43.257 24.5259 43.312 24.5607 43.3776C24.63 43.5082 24.7313 43.6844 24.8582 43.8623C24.9839 44.0385 25.1421 44.2271 25.3278 44.3742C25.5121 44.5203 25.7474 44.6441 26.0202 44.6441V44.0441ZM27.0159 43.0321C27.0159 43.5989 26.5709 44.0441 26.0202 44.0441V44.6441C26.9093 44.6441 27.6159 43.9231 27.6159 43.0321H27.0159ZM27.0159 32.2442V43.0321H27.6159V32.2442H27.0159ZM27.0159 32.0984V32.2442H27.6159V32.0984H27.0159ZM27.0159 24.0802V32.0984H27.6159V24.0802H27.0159ZM22.1202 30.2027V32.3171H22.7202V30.2027H22.1202ZM20.874 31.7537L22.6016 30.4416L22.2387 29.9638L20.5111 31.2758L20.874 31.7537ZM21.0893 31.4047L20.8483 31.2584L20.5368 31.7711L20.7777 31.9175L21.0893 31.4047ZM21.6918 31.5391C21.4504 31.4169 21.1869 31.357 20.9287 31.3612L20.9383 31.9611C21.098 31.9585 21.2654 31.9957 21.4207 32.0744L21.6918 31.5391ZM22.5727 32.0588L21.7088 31.5485L21.4037 32.0651L22.2676 32.5754L22.5727 32.0588Z" fill="#C9C9C9" mask="url(#path-1-inside-1_1_355)"/>
</svg>
